<mxfile host="app.diagrams.net" modified="2022-08-09T05:06:34.333Z" agent="5.0 (X11; Linux x86_64) AppleWebKit/537.36 (KHTML, like Gecko) Chrome/103.0.0.0 Safari/537.36" etag="RK2gfHb76d9Go4LO22Xg" version="20.2.3" type="github">
  <diagram id="etsOzWRCvJ6Z4a5BRvLz" name="Page-1">
    <mxGraphModel dx="1348" dy="805" grid="1" gridSize="10" guides="1" tooltips="1" connect="1" arrows="1" fold="1" page="1" pageScale="1" pageWidth="850" pageHeight="1100" math="0" shadow="0">
      <root>
        <mxCell id="0" />
        <mxCell id="1" parent="0" />
        <mxCell id="RZ1hKAIcU0ogPIlj01Kb-1" value="Amazon EKS" style="sketch=0;outlineConnect=0;fontColor=#232F3E;gradientColor=none;strokeColor=#ffffff;fillColor=#232F3E;dashed=0;verticalLabelPosition=middle;verticalAlign=bottom;align=center;html=1;whiteSpace=wrap;fontSize=10;fontStyle=1;spacing=3;shape=mxgraph.aws4.productIcon;prIcon=mxgraph.aws4.eks;" vertex="1" parent="1">
          <mxGeometry x="480" y="160" width="80" height="100" as="geometry" />
        </mxCell>
        <mxCell id="RZ1hKAIcU0ogPIlj01Kb-7" value="" style="edgeStyle=orthogonalEdgeStyle;rounded=0;orthogonalLoop=1;jettySize=auto;html=1;" edge="1" parent="1" source="RZ1hKAIcU0ogPIlj01Kb-2" target="RZ1hKAIcU0ogPIlj01Kb-3">
          <mxGeometry relative="1" as="geometry" />
        </mxCell>
        <mxCell id="RZ1hKAIcU0ogPIlj01Kb-2" value="Crossplane as IAC" style="whiteSpace=wrap;html=1;aspect=fixed;" vertex="1" parent="1">
          <mxGeometry x="40" y="130" width="80" height="80" as="geometry" />
        </mxCell>
        <mxCell id="RZ1hKAIcU0ogPIlj01Kb-8" value="" style="edgeStyle=orthogonalEdgeStyle;rounded=0;orthogonalLoop=1;jettySize=auto;html=1;" edge="1" parent="1" source="RZ1hKAIcU0ogPIlj01Kb-3" target="RZ1hKAIcU0ogPIlj01Kb-4">
          <mxGeometry relative="1" as="geometry" />
        </mxCell>
        <mxCell id="RZ1hKAIcU0ogPIlj01Kb-3" value="Github - Code base" style="whiteSpace=wrap;html=1;aspect=fixed;" vertex="1" parent="1">
          <mxGeometry x="170" y="130" width="80" height="80" as="geometry" />
        </mxCell>
        <mxCell id="RZ1hKAIcU0ogPIlj01Kb-4" value="ArgoCD" style="whiteSpace=wrap;html=1;aspect=fixed;" vertex="1" parent="1">
          <mxGeometry x="310" y="150" width="80" height="80" as="geometry" />
        </mxCell>
        <mxCell id="RZ1hKAIcU0ogPIlj01Kb-6" value="Writing the deployment manifest for microservices, crossplane manifest for AWS RDS, AWS Kinesis, VPC Endpoints to communicate between the cluster, DB and stream.&amp;nbsp;&lt;br&gt;&lt;br&gt;Also, having the argoCD manifest in github to deploy apps to k8s&amp;nbsp;" style="rounded=1;whiteSpace=wrap;html=1;" vertex="1" parent="1">
          <mxGeometry x="80" y="320" width="210" height="260" as="geometry" />
        </mxCell>
        <mxCell id="RZ1hKAIcU0ogPIlj01Kb-9" value="" style="endArrow=classic;html=1;rounded=0;exitX=1;exitY=0.5;exitDx=0;exitDy=0;" edge="1" parent="1" source="RZ1hKAIcU0ogPIlj01Kb-4" target="RZ1hKAIcU0ogPIlj01Kb-1">
          <mxGeometry width="50" height="50" relative="1" as="geometry">
            <mxPoint x="400" y="380" as="sourcePoint" />
            <mxPoint x="450" y="330" as="targetPoint" />
          </mxGeometry>
        </mxCell>
        <mxCell id="RZ1hKAIcU0ogPIlj01Kb-10" value="" style="endArrow=classic;startArrow=classic;html=1;rounded=0;entryX=0.25;entryY=1;entryDx=0;entryDy=0;" edge="1" parent="1" source="RZ1hKAIcU0ogPIlj01Kb-6" target="RZ1hKAIcU0ogPIlj01Kb-3">
          <mxGeometry width="50" height="50" relative="1" as="geometry">
            <mxPoint x="400" y="380" as="sourcePoint" />
            <mxPoint x="450" y="330" as="targetPoint" />
          </mxGeometry>
        </mxCell>
        <mxCell id="RZ1hKAIcU0ogPIlj01Kb-11" value="" style="endArrow=classic;startArrow=classic;html=1;rounded=0;exitX=0.833;exitY=0;exitDx=0;exitDy=0;exitPerimeter=0;entryX=0.125;entryY=1.025;entryDx=0;entryDy=0;entryPerimeter=0;" edge="1" parent="1" source="RZ1hKAIcU0ogPIlj01Kb-6" target="RZ1hKAIcU0ogPIlj01Kb-4">
          <mxGeometry width="50" height="50" relative="1" as="geometry">
            <mxPoint x="400" y="380" as="sourcePoint" />
            <mxPoint x="450" y="330" as="targetPoint" />
          </mxGeometry>
        </mxCell>
        <mxCell id="RZ1hKAIcU0ogPIlj01Kb-12" value="" style="outlineConnect=0;dashed=0;verticalLabelPosition=bottom;verticalAlign=top;align=center;html=1;shape=mxgraph.aws3.rds;fillColor=#2E73B8;gradientColor=none;" vertex="1" parent="1">
          <mxGeometry x="660" y="79" width="72" height="81" as="geometry" />
        </mxCell>
        <mxCell id="RZ1hKAIcU0ogPIlj01Kb-13" value="" style="outlineConnect=0;dashed=0;verticalLabelPosition=bottom;verticalAlign=top;align=center;html=1;shape=mxgraph.aws3.kinesis;fillColor=#F58534;gradientColor=none;" vertex="1" parent="1">
          <mxGeometry x="650" y="290" width="67.5" height="81" as="geometry" />
        </mxCell>
        <mxCell id="RZ1hKAIcU0ogPIlj01Kb-14" value="" style="endArrow=classic;html=1;rounded=0;" edge="1" parent="1" source="RZ1hKAIcU0ogPIlj01Kb-1" target="RZ1hKAIcU0ogPIlj01Kb-12">
          <mxGeometry width="50" height="50" relative="1" as="geometry">
            <mxPoint x="400" y="360" as="sourcePoint" />
            <mxPoint x="450" y="310" as="targetPoint" />
          </mxGeometry>
        </mxCell>
        <mxCell id="RZ1hKAIcU0ogPIlj01Kb-15" value="" style="endArrow=classic;html=1;rounded=0;entryX=0;entryY=0.79;entryDx=0;entryDy=0;entryPerimeter=0;" edge="1" parent="1" source="RZ1hKAIcU0ogPIlj01Kb-1" target="RZ1hKAIcU0ogPIlj01Kb-13">
          <mxGeometry width="50" height="50" relative="1" as="geometry">
            <mxPoint x="400" y="360" as="sourcePoint" />
            <mxPoint x="450" y="310" as="targetPoint" />
          </mxGeometry>
        </mxCell>
        <mxCell id="RZ1hKAIcU0ogPIlj01Kb-16" value="RDS" style="ellipse;whiteSpace=wrap;html=1;" vertex="1" parent="1">
          <mxGeometry x="660" y="20" width="74" height="50" as="geometry" />
        </mxCell>
        <mxCell id="RZ1hKAIcU0ogPIlj01Kb-17" value="Kinesis" style="ellipse;whiteSpace=wrap;html=1;" vertex="1" parent="1">
          <mxGeometry x="645.63" y="371" width="76.25" height="29" as="geometry" />
        </mxCell>
        <mxCell id="RZ1hKAIcU0ogPIlj01Kb-20" value="Having an ingress and cluster autoscaler in place for high availability" style="rounded=1;whiteSpace=wrap;html=1;" vertex="1" parent="1">
          <mxGeometry x="450" y="360" width="120" height="60" as="geometry" />
        </mxCell>
        <mxCell id="RZ1hKAIcU0ogPIlj01Kb-21" value="" style="endArrow=classic;html=1;rounded=0;" edge="1" parent="1" target="RZ1hKAIcU0ogPIlj01Kb-1">
          <mxGeometry width="50" height="50" relative="1" as="geometry">
            <mxPoint x="520" y="350" as="sourcePoint" />
            <mxPoint x="450" y="310" as="targetPoint" />
          </mxGeometry>
        </mxCell>
      </root>
    </mxGraphModel>
  </diagram>
</mxfile>
